<mxfile host="app.diagrams.net" modified="2021-08-01T09:50:11.943Z" agent="5.0 (Windows NT 10.0; Win64; x64) AppleWebKit/537.36 (KHTML, like Gecko) Chrome/92.0.4515.107 Safari/537.36" etag="3PXxE1_Xj_fb3CVE_fta" version="14.9.3" type="github">
  <diagram id="z3gh77jGO4xXiB-XP6Hk" name="Page-1">
    <mxGraphModel dx="1287" dy="752" grid="1" gridSize="10" guides="1" tooltips="1" connect="1" arrows="1" fold="1" page="1" pageScale="1" pageWidth="827" pageHeight="1169" math="0" shadow="0">
      <root>
        <mxCell id="0" />
        <mxCell id="1" parent="0" />
        <mxCell id="abs5PfqRBGvwRtDNzFoP-3" value="" style="group" vertex="1" connectable="0" parent="1">
          <mxGeometry x="-60" y="110" width="749.2" height="340" as="geometry" />
        </mxCell>
        <mxCell id="ENWBabSdbnt1WeymbpNv-18" style="edgeStyle=orthogonalEdgeStyle;rounded=0;orthogonalLoop=1;jettySize=auto;html=1;entryX=0.5;entryY=0;entryDx=0;entryDy=0;" parent="abs5PfqRBGvwRtDNzFoP-3" source="ENWBabSdbnt1WeymbpNv-5" edge="1">
          <mxGeometry as="geometry">
            <mxPoint x="718.76" y="260" as="targetPoint" />
          </mxGeometry>
        </mxCell>
        <mxCell id="ENWBabSdbnt1WeymbpNv-23" value="&lt;b&gt;&lt;font style=&quot;font-size: 12px&quot;&gt;1. 설정 값 갱신&lt;br&gt;(Update)&lt;/font&gt;&lt;/b&gt;" style="edgeLabel;html=1;align=center;verticalAlign=middle;resizable=0;points=[];" parent="ENWBabSdbnt1WeymbpNv-18" vertex="1" connectable="0">
          <mxGeometry x="-0.5267" y="2" relative="1" as="geometry">
            <mxPoint y="-23" as="offset" />
          </mxGeometry>
        </mxCell>
        <mxCell id="ENWBabSdbnt1WeymbpNv-5" value="" style="pointerEvents=1;shadow=0;dashed=0;html=1;strokeColor=none;labelPosition=center;verticalLabelPosition=bottom;verticalAlign=top;align=center;fillColor=#505050;shape=mxgraph.mscae.intune.account_portal" parent="abs5PfqRBGvwRtDNzFoP-3" vertex="1">
          <mxGeometry x="418.5" width="43" height="50" as="geometry" />
        </mxCell>
        <mxCell id="ENWBabSdbnt1WeymbpNv-15" value="&lt;b&gt;Spring Cloud Config Server&lt;/b&gt;" style="rounded=1;whiteSpace=wrap;html=1;fillColor=#dae8fc;strokeColor=#6c8ebf;" parent="abs5PfqRBGvwRtDNzFoP-3" vertex="1">
          <mxGeometry x="350" y="260" width="180" height="60" as="geometry" />
        </mxCell>
        <mxCell id="ENWBabSdbnt1WeymbpNv-16" value="" style="group;" parent="abs5PfqRBGvwRtDNzFoP-3" vertex="1" connectable="0">
          <mxGeometry y="240" width="220" height="100" as="geometry" />
        </mxCell>
        <mxCell id="ENWBabSdbnt1WeymbpNv-8" value="" style="rounded=1;whiteSpace=wrap;html=1;fillColor=#f5f5f5;strokeColor=#666666;fontColor=#333333;" parent="ENWBabSdbnt1WeymbpNv-16" vertex="1">
          <mxGeometry width="180" height="60" as="geometry" />
        </mxCell>
        <mxCell id="ENWBabSdbnt1WeymbpNv-9" value="" style="rounded=1;whiteSpace=wrap;html=1;fillColor=#f5f5f5;strokeColor=#666666;fontColor=#333333;" parent="ENWBabSdbnt1WeymbpNv-16" vertex="1">
          <mxGeometry x="20" y="20" width="180" height="60" as="geometry" />
        </mxCell>
        <mxCell id="ENWBabSdbnt1WeymbpNv-10" value="&lt;b&gt;Applicaiton&lt;br&gt;(Spring Cloud Config Client)&lt;/b&gt;" style="rounded=1;whiteSpace=wrap;html=1;fillColor=#f5f5f5;strokeColor=#666666;fontColor=#333333;" parent="ENWBabSdbnt1WeymbpNv-16" vertex="1">
          <mxGeometry x="40" y="40" width="180" height="60" as="geometry" />
        </mxCell>
        <mxCell id="ENWBabSdbnt1WeymbpNv-25" style="edgeStyle=orthogonalEdgeStyle;rounded=1;orthogonalLoop=1;jettySize=auto;html=1;entryX=0.5;entryY=0;entryDx=0;entryDy=0;" parent="abs5PfqRBGvwRtDNzFoP-3" source="ENWBabSdbnt1WeymbpNv-5" target="ENWBabSdbnt1WeymbpNv-8" edge="1">
          <mxGeometry as="geometry" />
        </mxCell>
        <mxCell id="abs5PfqRBGvwRtDNzFoP-2" value="&lt;b&gt;&lt;font style=&quot;font-size: 12px&quot;&gt;2. 갱신 요청&amp;nbsp;&lt;br&gt;&lt;/font&gt;&lt;/b&gt;" style="edgeLabel;html=1;align=center;verticalAlign=middle;resizable=0;points=[];" vertex="1" connectable="0" parent="ENWBabSdbnt1WeymbpNv-25">
          <mxGeometry relative="1" as="geometry">
            <mxPoint x="114" y="-15" as="offset" />
          </mxGeometry>
        </mxCell>
        <mxCell id="ENWBabSdbnt1WeymbpNv-22" style="edgeStyle=orthogonalEdgeStyle;rounded=1;orthogonalLoop=1;jettySize=auto;html=1;entryX=1;entryY=0.75;entryDx=0;entryDy=0;exitX=-0.017;exitY=0.363;exitDx=0;exitDy=0;exitPerimeter=0;" parent="abs5PfqRBGvwRtDNzFoP-3" source="abs5PfqRBGvwRtDNzFoP-1" target="ENWBabSdbnt1WeymbpNv-15" edge="1">
          <mxGeometry as="geometry">
            <Array as="points">
              <mxPoint x="595" y="290" />
              <mxPoint x="595" y="305" />
            </Array>
            <mxPoint x="660" y="290" as="sourcePoint" />
          </mxGeometry>
        </mxCell>
        <mxCell id="ENWBabSdbnt1WeymbpNv-29" style="edgeStyle=orthogonalEdgeStyle;rounded=1;orthogonalLoop=1;jettySize=auto;html=1;exitX=1;exitY=0.25;exitDx=0;exitDy=0;entryX=0;entryY=0.25;entryDx=0;entryDy=0;startArrow=classic;startFill=1;" parent="abs5PfqRBGvwRtDNzFoP-3" source="ENWBabSdbnt1WeymbpNv-9" target="ENWBabSdbnt1WeymbpNv-15" edge="1">
          <mxGeometry as="geometry" />
        </mxCell>
        <mxCell id="ENWBabSdbnt1WeymbpNv-30" style="edgeStyle=orthogonalEdgeStyle;rounded=1;orthogonalLoop=1;jettySize=auto;html=1;exitX=1;exitY=0.25;exitDx=0;exitDy=0;entryX=0;entryY=0.133;entryDx=0;entryDy=0;entryPerimeter=0;startArrow=classic;startFill=1;" parent="abs5PfqRBGvwRtDNzFoP-3" source="ENWBabSdbnt1WeymbpNv-8" target="ENWBabSdbnt1WeymbpNv-15" edge="1">
          <mxGeometry as="geometry" />
        </mxCell>
        <mxCell id="ENWBabSdbnt1WeymbpNv-32" value="&lt;b&gt;&lt;font style=&quot;font-size: 12px&quot;&gt;3. 설정 값 요청&lt;/font&gt;&lt;/b&gt;" style="edgeLabel;html=1;align=center;verticalAlign=middle;resizable=0;points=[];" parent="ENWBabSdbnt1WeymbpNv-30" vertex="1" connectable="0">
          <mxGeometry x="-0.2022" y="4" relative="1" as="geometry">
            <mxPoint x="17" y="-11" as="offset" />
          </mxGeometry>
        </mxCell>
        <mxCell id="ENWBabSdbnt1WeymbpNv-28" style="rounded=1;orthogonalLoop=1;jettySize=auto;html=1;edgeStyle=orthogonalEdgeStyle;entryX=0;entryY=0.75;entryDx=0;entryDy=0;startArrow=classic;startFill=1;" parent="abs5PfqRBGvwRtDNzFoP-3" source="ENWBabSdbnt1WeymbpNv-10" target="ENWBabSdbnt1WeymbpNv-15" edge="1">
          <mxGeometry as="geometry" />
        </mxCell>
        <mxCell id="ENWBabSdbnt1WeymbpNv-33" value="&lt;b&gt;4. 설정 조회&lt;/b&gt;" style="text;html=1;align=center;verticalAlign=middle;resizable=0;points=[];autosize=1;strokeColor=none;" parent="abs5PfqRBGvwRtDNzFoP-3" vertex="1">
          <mxGeometry x="555" y="240" width="80" height="20" as="geometry" />
        </mxCell>
        <mxCell id="ENWBabSdbnt1WeymbpNv-34" value="&lt;b&gt;5. 최신 설정 Real&lt;/b&gt;" style="text;html=1;align=center;verticalAlign=middle;resizable=0;points=[];autosize=1;strokeColor=none;" parent="abs5PfqRBGvwRtDNzFoP-3" vertex="1">
          <mxGeometry x="540" y="310" width="110" height="20" as="geometry" />
        </mxCell>
        <mxCell id="FGkEAyx3wPRmbGcF_qL--2" value="&lt;b style=&quot;font-size: 11px&quot;&gt;&lt;font style=&quot;font-size: 12px&quot;&gt;6. 설정 값 응답&lt;/font&gt;&lt;/b&gt;" style="text;html=1;align=center;verticalAlign=middle;resizable=0;points=[];autosize=1;strokeColor=none;" parent="abs5PfqRBGvwRtDNzFoP-3" vertex="1">
          <mxGeometry x="230" y="320" width="100" height="20" as="geometry" />
        </mxCell>
        <mxCell id="abs5PfqRBGvwRtDNzFoP-1" value="&lt;b&gt;MySQL or Redis&lt;/b&gt;" style="aspect=fixed;html=1;points=[];align=center;image;fontSize=12;image=img/lib/mscae/StorSimple_Data_Managers.svg;" vertex="1" parent="abs5PfqRBGvwRtDNzFoP-3">
          <mxGeometry x="690" y="260" width="59.2" height="80" as="geometry" />
        </mxCell>
        <mxCell id="ENWBabSdbnt1WeymbpNv-20" style="edgeStyle=orthogonalEdgeStyle;rounded=1;orthogonalLoop=1;jettySize=auto;html=1;exitX=1;exitY=0.25;exitDx=0;exitDy=0;entryX=-0.068;entryY=0.088;entryDx=0;entryDy=0;entryPerimeter=0;" parent="abs5PfqRBGvwRtDNzFoP-3" source="ENWBabSdbnt1WeymbpNv-15" target="abs5PfqRBGvwRtDNzFoP-1" edge="1">
          <mxGeometry as="geometry">
            <mxPoint x="660" y="270" as="targetPoint" />
          </mxGeometry>
        </mxCell>
      </root>
    </mxGraphModel>
  </diagram>
</mxfile>
